<svg width="60" height="59" viewBox="0 0 60 59" fill="none" xmlns="http://www.w3.org/2000/svg">
<path fill-rule="evenodd" clip-rule="evenodd" d="M47.3613 11.6065C50.6309 11.6065 53.2815 9.00833 53.2815 5.80327C53.2815 2.59821 50.6309 0 47.3613 0C44.0917 0 41.4411 2.59821 41.4411 5.80327C41.4411 7.18681 41.935 8.45727 42.7594 9.45447L35.6461 17.7871C33.3355 16.3244 30.5826 15.4754 27.6275 15.4754C23.9146 15.4754 20.521 16.8156 17.9227 19.0294L9.37939 11.7708C9.69185 11.136 9.86697 10.424 9.86697 9.67197C9.86697 7.00109 7.65817 4.83591 4.93349 4.83591C2.2088 4.83591 0 7.00109 0 9.67197C0 12.3429 2.2088 14.508 4.93349 14.508C6.17714 14.508 7.31332 14.0569 8.18104 13.3126L16.5187 20.3964C14.2209 22.9528 12.827 26.3087 12.827 29.9836C12.827 32.7554 13.6199 35.3456 14.9956 37.5482C16.4582 35.256 18.5778 33.4079 21.0959 32.2572C21.7619 31.9529 21.9873 31.0595 21.6196 30.4263C21.0469 29.4398 20.7198 28.2985 20.7198 27.0823C20.7198 23.3431 23.8121 20.3119 27.6267 20.3119C31.4412 20.3119 34.5335 23.3431 34.5335 27.0823C34.5335 28.4298 34.132 29.6853 33.4398 30.7401C33.0381 31.3524 33.2152 32.2565 33.864 32.5961C36.3502 33.8976 38.3984 35.8978 39.7357 38.3291C40.0039 37.9558 40.2546 37.5696 40.4867 37.1716L44.6501 39.2367C44.4882 39.8333 44.4019 40.4602 44.4019 41.1068C44.4019 45.1131 47.7151 48.3609 51.8021 48.3609C55.8891 48.3609 59.2023 45.1131 59.2023 41.1068C59.2023 37.1005 55.8891 33.8527 51.8021 33.8527C49.1264 33.8527 46.7824 35.2447 45.4826 37.3302L41.4005 35.3054C42.0636 33.6577 42.4279 31.8624 42.4279 29.9836C42.4279 25.6122 40.4557 21.6924 37.3359 19.0325L44.3588 10.8059C45.2391 11.3147 46.2654 11.6065 47.3613 11.6065ZM29.646 30.3126C29.3514 30.8506 29.1817 31.4829 29.1817 32.1595C29.1817 32.9443 29.4101 33.6695 29.7967 34.257C33.3363 35.0879 36.2021 37.5383 37.5703 40.7306C34.9429 43.0677 31.4549 44.4918 27.6275 44.4918C24.6422 44.4918 21.8634 43.6254 19.5384 42.1352L15.6085 48.0147C16.9288 49.1662 17.7605 50.8445 17.7605 52.7132C17.7605 56.1853 14.8891 59.0001 11.347 59.0001C7.8049 59.0001 4.93347 56.1853 4.93347 52.7132C4.93347 49.2411 7.8049 46.4263 11.347 46.4263C12.2624 46.4263 13.133 46.6143 13.9208 46.9531L17.9347 40.948C17.6109 40.6727 17.2994 40.3839 17.0011 40.0823C18.5748 36.9899 21.5955 34.7031 25.2339 34.105C25.6167 33.4828 25.8407 32.7295 25.8407 31.9178C25.8407 31.3202 25.7193 30.7544 25.5025 30.2491C24.4173 29.5677 23.7198 28.3831 23.7198 27.0823C23.7198 25.0561 25.4123 23.3119 27.6267 23.3119C29.8411 23.3119 31.5335 25.0561 31.5335 27.0823C31.5335 28.4245 30.791 29.6429 29.646 30.3126Z" fill="white"/>
</svg>
