<svg width="25" height="24" viewBox="0 0 25 24" fill="none" xmlns="http://www.w3.org/2000/svg">
<path d="M19.204 3.48018C19.5045 3.12478 19.4616 2.59039 19.086 2.31556C17.4742 1.13618 15.5895 0.375021 13.6013 0.107321C11.3341 -0.197951 9.02687 0.151205 6.95151 1.11364C4.87615 2.07608 3.11913 3.6117 1.88752 5.53953C0.655899 7.46736 0.00100275 9.70708 1.15014e-06 11.9947C-0.00100045 14.2824 0.651934 16.5227 1.88186 18.4516C3.11179 20.3805 4.86746 21.9177 6.94198 22.8819C9.0165 23.8462 11.3234 24.1974 13.5909 23.8941C15.5793 23.6281 17.4647 22.8686 19.0775 21.6906C19.4534 21.4161 19.4967 20.8818 19.1965 20.5261C18.8963 20.1705 18.3665 20.1287 17.9875 20.3988C16.6226 21.3719 15.0373 22.0002 13.3674 22.2235C11.4185 22.4842 9.43554 22.1823 7.6524 21.3535C5.86925 20.5247 4.36017 19.2034 3.30299 17.5455C2.24581 15.8875 1.68458 13.9618 1.68545 11.9955C1.68631 10.0291 2.24922 8.10399 3.30785 6.44693C4.36648 4.78987 5.87672 3.46993 7.66059 2.64267C9.44446 1.81541 11.4276 1.5153 13.3764 1.77769C15.046 2.0025 16.6308 2.63218 17.9948 3.60642C18.3736 3.87693 18.9035 3.83558 19.204 3.48018Z" fill="black"/>
<path d="M19.5 7.5L23.109 11.109C23.2799 11.2799 23.3653 11.3653 23.4216 11.451C23.6405 11.7843 23.6405 12.2157 23.4216 12.549C23.3653 12.6347 23.2799 12.7201 23.109 12.891L19.5 16.5" stroke="black" stroke-width="1.6"/>
<path d="M10 12H23.5" stroke="black" stroke-width="1.6"/>
</svg>
