<svg width="23" height="17" viewBox="0 0 23 17" fill="none" xmlns="http://www.w3.org/2000/svg">
<path d="M1 2V15C1 15.5523 1.44772 16 2 16H18.3027C18.7217 16 19.0962 15.7388 19.2411 15.3457L22.0042 7.84571C22.2447 7.19285 21.7616 6.5 21.0659 6.5H21C20.4477 6.5 20 6.05228 20 5.5V4C20 3.44772 19.5523 3 19 3H10.8508C10.6237 3 10.4034 2.92272 10.2261 2.78087L8.27391 1.21913C8.0966 1.07728 7.87629 1 7.64922 1H2C1.44772 1 1 1.44772 1 2Z" stroke="black" stroke-width="1.6"/>
<path d="M21.1219 6.5H5.11803C4.73926 6.5 4.393 6.714 4.22361 7.05279L1 13.5" stroke="black" stroke-width="1.6"/>
</svg>
