<svg width="22" height="23" viewBox="0 0 22 23" fill="none" xmlns="http://www.w3.org/2000/svg">
<path d="M10.911 6.04076C10.9243 6.01463 10.9372 6.00485 10.9465 5.99943C10.9588 5.99223 10.9773 5.98621 11.0001 5.98621C11.0228 5.98621 11.0413 5.99223 11.0536 5.99943C11.0629 6.00485 11.0758 6.01463 11.0891 6.04076L12.3665 8.54378C12.6413 9.0823 13.156 9.45788 13.7527 9.55529L16.776 10.0489C16.8069 10.0539 16.82 10.0637 16.8274 10.0706C16.8378 10.0803 16.8494 10.0968 16.856 10.1198C16.8626 10.1428 16.8617 10.1629 16.8581 10.1766C16.8554 10.1864 16.8496 10.2017 16.8262 10.2224L14.7187 12.0882C14.2078 12.5405 13.9786 13.232 14.1183 13.8998L14.6958 16.6604C14.702 16.6905 14.6977 16.7063 14.6939 16.7159C14.6887 16.7291 14.6776 16.7457 14.6589 16.7601C14.6402 16.7745 14.6214 16.781 14.6072 16.7827C14.597 16.7839 14.5806 16.7841 14.5532 16.7704L11.8497 15.4187C11.3149 15.1512 10.6853 15.1512 10.1504 15.4187L7.44689 16.7704C7.4194 16.7841 7.40307 16.7839 7.3928 16.7827C7.37869 16.781 7.35983 16.7745 7.34112 16.7601C7.32241 16.7457 7.31131 16.7291 7.30611 16.7159C7.30231 16.7063 7.29799 16.6905 7.30429 16.6604L7.89002 13.8604C8.02122 13.2332 7.82744 12.5821 7.37463 12.1287L5.4131 10.1646C5.39237 10.1439 5.38705 10.1286 5.38476 10.1181C5.38172 10.1042 5.38171 10.0847 5.38875 10.0631C5.39578 10.0414 5.40722 10.0257 5.41787 10.0162C5.42589 10.0091 5.43918 9.99982 5.46814 9.99521L8.24085 9.55423C8.84065 9.45884 9.3587 9.08245 9.63478 8.54148L10.911 6.04076Z" stroke="black" stroke-width="1.8"/>
<path d="M19 22H3C1.89543 22 1 21.1046 1 20V3C1 1.89543 1.89543 1 3 1H19C20.1046 1 21 1.89543 21 3V20C21 21.1046 20.1046 22 19 22Z" stroke="black" stroke-width="1.8"/>
</svg>
