<svg width="23" height="23" viewBox="0 0 23 23" fill="none" xmlns="http://www.w3.org/2000/svg">
<path d="M11.502 0.416687C10.6312 0.416687 9.79162 0.526811 8.99011 0.713279C8.82297 0.75229 8.67208 0.842252 8.55828 0.970733C8.44448 1.09921 8.3734 1.25987 8.35486 1.43049L8.17906 3.03317C8.12157 3.55835 7.8182 4.02303 7.36047 4.28748C6.90365 4.55141 6.34918 4.58065 5.86564 4.36837H5.86457L4.39239 3.72018C4.23536 3.65108 4.06076 3.63244 3.89268 3.66682C3.7246 3.70121 3.57135 3.78694 3.45408 3.91216C2.30965 5.13225 1.43132 6.60965 0.93251 8.25858C0.882824 8.4227 0.885293 8.59819 0.939576 8.76085C0.993859 8.9235 1.09728 9.06531 1.23557 9.16669L2.54166 10.1244C2.96815 10.438 3.21897 10.9321 3.21897 11.4607C3.21897 11.9895 2.96816 12.4841 2.54166 12.797L1.23557 13.7536C1.09728 13.855 0.993859 13.9968 0.939576 14.1595C0.885293 14.3221 0.882824 14.4976 0.93251 14.6617C1.43126 16.3105 2.3089 17.789 3.45408 19.0092C3.57148 19.1343 3.72479 19.2198 3.89286 19.254C4.06093 19.2882 4.23547 19.2694 4.39239 19.2001L5.86457 18.5519C6.34834 18.3392 6.90334 18.3698 7.36047 18.6339C7.8182 18.8984 8.12157 19.363 8.17906 19.8882L8.35486 21.4909C8.37354 21.6612 8.44456 21.8215 8.55813 21.9498C8.67171 22.078 8.82225 22.1679 8.98903 22.207C9.79091 22.3942 10.6312 22.5047 11.502 22.5047C12.3727 22.5047 13.2123 22.3946 14.0138 22.2081C14.181 22.1691 14.3319 22.0791 14.4457 21.9507C14.5595 21.8222 14.6305 21.6615 14.6491 21.4909L14.8249 19.8882C14.8824 19.363 15.1858 18.8984 15.6435 18.6339C16.1003 18.37 16.6548 18.3397 17.1383 18.5519L18.6116 19.2001C18.7685 19.2694 18.943 19.2882 19.1111 19.254C19.2792 19.2198 19.4325 19.1343 19.5499 19.0092C20.6943 17.7891 21.5726 16.3107 22.0714 14.6617C22.1211 14.4976 22.1187 14.3221 22.0644 14.1595C22.0101 13.9968 21.9067 13.855 21.7684 13.7536L20.4623 12.797C20.0358 12.4841 19.785 11.9895 19.785 11.4607C19.785 10.9318 20.0358 10.4373 20.4623 10.1244L21.7684 9.16777C21.9067 9.06639 22.0101 8.92458 22.0644 8.76193C22.1187 8.59927 22.1211 8.42378 22.0714 8.25966C21.5726 6.61073 20.6943 5.13225 19.5499 3.91216C19.4325 3.78712 19.2792 3.7016 19.1111 3.66741C18.943 3.63321 18.7685 3.65203 18.6116 3.72126L17.1383 4.36945C16.6548 4.58173 16.1003 4.55141 15.6435 4.28748C15.1858 4.02303 14.8824 3.55835 14.8249 3.03317L14.6491 1.43049C14.6304 1.2602 14.5594 1.09989 14.4458 0.97164C14.3322 0.843387 14.1817 0.7535 14.0149 0.714358C13.213 0.527213 12.3727 0.416687 11.502 0.416687ZM11.502 2.07329C12.04 2.07329 12.5566 2.16986 13.0744 2.26095L13.178 3.21328C13.2928 4.26187 13.9023 5.19451 14.8152 5.72191C15.7286 6.24965 16.8407 6.31033 17.8059 5.88584L18.6817 5.50081C19.3541 6.30834 19.8866 7.22045 20.2584 8.21975L19.4819 8.78921C18.6317 9.41288 18.1284 10.4058 18.1284 11.4607C18.1284 12.5156 18.6317 13.5085 19.4819 14.1322L20.2584 14.7016C19.8866 15.7009 19.3541 16.6131 18.6817 17.4206L17.8059 17.0355C16.8407 16.6111 15.7286 16.6717 14.8152 17.1995C13.9023 17.7269 13.2928 18.6595 13.178 19.7081L13.0744 20.6604C12.5567 20.7513 12.0397 20.8481 11.502 20.8481C10.964 20.8481 10.4473 20.7515 9.9295 20.6604L9.82596 19.7081C9.71117 18.6595 9.10161 17.7269 8.18877 17.1995C7.27534 16.6717 6.16325 16.6111 5.19804 17.0355L4.32229 17.4206C3.64967 16.6132 3.11733 15.701 2.7455 14.7016L3.52203 14.1322C4.37221 13.5085 4.87557 12.5156 4.87557 11.4607C4.87557 10.4058 4.3718 9.41223 3.52203 8.78813L2.7455 8.21868C3.11754 7.21899 3.65048 6.30747 4.32337 5.49974L5.19804 5.88477C6.16325 6.30925 7.27534 6.24965 8.18877 5.72191C9.10161 5.19451 9.71117 4.26187 9.82596 3.21328L9.9295 2.26095C10.4473 2.17011 10.9642 2.07329 11.502 2.07329ZM11.502 7.04309C9.07201 7.04309 7.08437 9.03073 7.08437 11.4607C7.08437 13.8907 9.07201 15.8783 11.502 15.8783C13.9319 15.8783 15.9196 13.8907 15.9196 11.4607C15.9196 9.03073 13.9319 7.04309 11.502 7.04309ZM11.502 8.69969C13.0366 8.69969 14.263 9.92603 14.263 11.4607C14.263 12.9954 13.0366 14.2217 11.502 14.2217C9.9673 14.2217 8.74097 12.9954 8.74097 11.4607C8.74097 9.92603 9.9673 8.69969 11.502 8.69969Z" fill="black"/>
</svg>
