<svg width="19" height="20" viewBox="0 0 19 20" fill="none" xmlns="http://www.w3.org/2000/svg">
<rect width="6.75445" height="2.22436" rx="1.11218" transform="matrix(-0.651395 -0.758739 0.773224 -0.634133 16.4736 19.9492)" fill="#1A93CC"/>
<mask id="path-2-inside-1_972_1334" fill="white">
<path d="M15.6305 8.0668C15.6305 12.2179 12.1875 15.5831 7.94026 15.5831C3.69305 15.5831 0.25 12.2179 0.25 8.0668C0.25 3.91568 3.69305 0.550537 7.94026 0.550537C12.1875 0.550537 15.6305 3.91568 15.6305 8.0668ZM2.20022 8.0668C2.20022 11.1652 4.77012 13.677 7.94026 13.677C11.1104 13.677 13.6803 11.1652 13.6803 8.0668C13.6803 4.96839 11.1104 2.45664 7.94026 2.45664C4.77012 2.45664 2.20022 4.96839 2.20022 8.0668Z"/>
</mask>
<path d="M15.6305 8.0668C15.6305 12.2179 12.1875 15.5831 7.94026 15.5831C3.69305 15.5831 0.25 12.2179 0.25 8.0668C0.25 3.91568 3.69305 0.550537 7.94026 0.550537C12.1875 0.550537 15.6305 3.91568 15.6305 8.0668ZM2.20022 8.0668C2.20022 11.1652 4.77012 13.677 7.94026 13.677C11.1104 13.677 13.6803 11.1652 13.6803 8.0668C13.6803 4.96839 11.1104 2.45664 7.94026 2.45664C4.77012 2.45664 2.20022 4.96839 2.20022 8.0668Z" stroke="#1A93CC" stroke-width="7.5" mask="url(#path-2-inside-1_972_1334)"/>
</svg>
